<svg id="e5x996r6wkec1" xmlns="http://www.w3.org/2000/svg" xmlns:xlink="http://www.w3.org/1999/xlink"
    viewBox="0 0 500 250" shape-rendering="geometricPrecision" text-rendering="geometricPrecision">
    <style>
        <![CDATA[
        #e5x996r6wkec4 {
            animation: e5x996r6wkec4_c_o 5000ms linear 2 normal forwards
        }

        @keyframes e5x996r6wkec4_c_o {
            0% {
                opacity: 0
            }

            26% {
                opacity: 0
            }

            46% {
                opacity: 1
            }

            100% {
                opacity: 1
            }
        }

        #e5x996r6wkec5 {
            animation: e5x996r6wkec5_c_o 5000ms linear 2 normal forwards
        }

        @keyframes e5x996r6wkec5_c_o {
            0% {
                opacity: 0
            }

            20% {
                opacity: 1
            }

            100% {
                opacity: 1
            }
        }

        #e5x996r6wkec6_to {
            animation: e5x996r6wkec6_to__to 5000ms linear 2 normal forwards
        }

        @keyframes e5x996r6wkec6_to__to {
            0% {
                transform: translate(103.968861px, 76.915000px);
                animation-timing-function: cubic-bezier(0, 0.365000, 1, 1)
            }

            14% {
                transform: translate(103.968861px, 56.266260px)
            }

            100% {
                transform: translate(103.968861px, 56.266260px)
            }
        }

        #e5x996r6wkec7_to {
            animation: e5x996r6wkec7_to__to 5000ms linear 2 normal forwards
        }

        @keyframes e5x996r6wkec7_to__to {
            0% {
                transform: translate(103.968849px, 114.160834px);
                animation-timing-function: cubic-bezier(0, 0.365000, 1, 1)
            }

            14% {
                transform: translate(103.968849px, 132.416252px)
            }

            100% {
                transform: translate(103.968849px, 132.416252px)
            }
        }

        #e5x996r6wkec8 {
            animation: e5x996r6wkec8_c_o 5000ms linear 2 normal forwards
        }

        @keyframes e5x996r6wkec8_c_o {
            0% {
                opacity: 0
            }

            36% {
                opacity: 0
            }

            56% {
                opacity: 1
            }

            100% {
                opacity: 1
            }
        }

        #e5x996r6wkec9 {
            animation: e5x996r6wkec9_c_o 5000ms linear 2 normal forwards
        }

        @keyframes e5x996r6wkec9_c_o {
            0% {
                opacity: 0
            }

            16% {
                opacity: 0
            }

            36% {
                opacity: 1
            }

            100% {
                opacity: 1
            }
        }

        #e5x996r6wkec10_ts {
            animation: e5x996r6wkec10_ts__ts 5000ms linear 2 normal forwards
        }

        #e5x996r6wkec10 {
            animation: e5x996r6wkec10_c_o 5000ms linear 2 normal forwards
        }

        @keyframes e5x996r6wkec10_c_o {
            0% {
                opacity: 0
            }

            46% {
                opacity: 0
            }

            66% {
                opacity: 1
            }

            100% {
                opacity: 1
            }
        }
        ]]>
    </style>
    <g id="e5x996r6wkec2" transform="matrix(1 0 0 1 74.34586716368898 25.08939432373046)">
        <g id="e5x996r6wkec3" transform="matrix(1 0 0 1 -77.62057304863930 -16.58682572050783)">
            <path id="e5x996r6wkec4"
                d="M121.318850,89.121260C125.888850,99.021260,122.938850,109.931260,113.618850,117.601260C104.298850,125.271260,93.018855,126.061260,84.188855,119.661260C83.178855,118.891260,82.208855,118.071260,81.298855,117.211260L92.438855,108.081260L90.348855,105.531260L90.298855,105.461260C90.158855,105.291260,90.028855,105.111260,89.888855,104.931260C89.868855,104.901260,89.848855,104.871260,89.818855,104.841260C89.808855,104.821260,89.788855,104.801260,89.778855,104.791260L89.388855,104.251260C88.328855,102.771260,87.388855,101.181260,86.578855,99.501260C82.038855,89.581260,85.018855,78.681260,94.358855,71.041260C103.708850,63.401260,114.988850,62.651260,123.798850,69.081260C124.788850,69.841260,125.738850,70.641260,126.628850,71.501260L115.518850,80.601260L117.558850,83.161260C117.698850,83.331260,117.838850,83.511260,117.978850,83.701260L118.498850,84.411260C119.548850,85.841260,120.498850,87.431260,121.318850,89.121260Z"
                transform="matrix(1 0 0 1 0.00499999396357 -0.92573838566956)" opacity="0" fill="rgb(0,71,182)"
                stroke="none" stroke-width="1" />
            <g id="e5x996r6wkec5" opacity="0">
                <g id="e5x996r6wkec6_to" transform="translate(103.968861,76.915000)">
                    <path id="e5x996r6wkec6"
                        d="M155.058850,62.841260C152.388850,56.141260,148.528850,50.231260,143.588850,45.261260C138.638850,40.291260,132.768850,36.421260,126.128850,33.761260C119.298850,31.021260,111.848850,29.641260,103.968850,29.641260C96.088855,29.641260,88.628855,31.031260,81.808855,33.761260C75.168855,36.421260,69.288855,40.291260,64.348855,45.261260C59.398855,50.231260,55.538855,56.141260,52.878855,62.841260C50.408855,69.041260,49.028855,75.771260,48.758855,82.871260L62.428855,82.891260C62.598855,81.931260,62.798855,80.981260,63.028855,80.031260L63.058855,79.901260L63.088855,79.771260C64.268855,75.271260,66.148855,71.091260,68.688855,67.341260C71.228855,63.591260,74.388855,60.331260,78.078855,57.661260C85.298855,52.431260,94.248855,49.671260,103.968850,49.671260C113.688850,49.671260,122.638850,52.431260,129.858850,57.661260C133.548850,60.331260,136.708850,63.591260,139.248850,67.341260C141.788850,71.091260,143.668850,75.271260,144.848850,79.771260L144.878850,79.901260L144.908850,80.031260C145.138850,80.981260,145.338850,81.931260,145.508850,82.891260L159.178850,82.871260C158.918850,75.771260,157.528850,69.051260,155.058850,62.841260Z"
                        transform="translate(-103.968861,-56.266260)" fill="rgb(0,71,182)" stroke="none"
                        stroke-width="1" />
                </g>
                <g id="e5x996r6wkec7_to" transform="translate(103.968849,114.160834)">
                    <path id="e5x996r6wkec7"
                        d="M159.178850,105.811260L145.508850,105.791260C145.338850,106.751260,145.138850,107.701260,144.908850,108.651260L144.878850,108.781260L144.848850,108.911260C143.668850,113.411260,141.788850,117.591260,139.248850,121.341260C136.708850,125.091260,133.548850,128.351260,129.858850,131.021260C122.638850,136.251260,113.688850,139.011260,103.968850,139.011260C94.248855,139.011260,85.298855,136.251260,78.078855,131.021260C74.388855,128.351260,71.228855,125.091260,68.688855,121.341260C66.148855,117.591260,64.268855,113.411260,63.088855,108.911260L63.058855,108.781260L63.028855,108.651260C62.798855,107.701260,62.598855,106.751260,62.428855,105.791260L48.758855,105.811260C49.028855,112.911260,50.408855,119.631260,52.878855,125.841260C55.548855,132.541260,59.408855,138.451260,64.348855,143.421260C69.298855,148.391260,75.168855,152.261260,81.808855,154.921260C88.638855,157.661260,96.088855,159.041260,103.968850,159.041260C111.848850,159.041260,119.308850,157.651260,126.128850,154.921260C132.768850,152.261260,138.648850,148.391260,143.588850,143.421260C148.538850,138.451260,152.398850,132.541260,155.058850,125.841260C157.528850,119.631260,158.918850,112.901260,159.178850,105.811260Z"
                        transform="translate(-103.968849,-132.416252)" fill="rgb(0,71,182)" stroke="none"
                        stroke-width="1" />
                </g>
            </g>
            <path id="e5x996r6wkec8"
                d="M189.460000,158.950000C186.320000,158.090000,183.670000,156.700000,181.510000,154.790000L188.950000,145.810000C190.370000,147.090000,192.020000,148.120000,193.880000,148.900000C195.750000,149.690000,197.710000,150.080000,199.770000,150.080000C200.700000,150.080000,201.480000,149.990000,202.090000,149.820000C202.700000,149.650000,203.010000,149.370000,203.010000,148.970000C203.010000,148.530000,202.590000,148.120000,201.760000,147.750000C200.920000,147.380000,199.500000,147,197.490000,146.610000C192.190000,145.580000,188.320000,144.090000,185.890000,142.150000C183.460000,140.210000,182.250000,137.740000,182.250000,134.750000C182.250000,132.590000,182.970000,130.540000,184.420000,128.600000C185.870000,126.660000,188.090000,125.070000,191.080000,123.810000C194.070000,122.560000,197.780000,121.930000,202.200000,121.930000C206.520000,121.930000,210.140000,122.450000,213.060000,123.480000C215.980000,124.510000,218.280000,125.790000,219.940000,127.310000L213.020000,135.480000C210.760000,133.220000,207.420000,132.090000,203.010000,132.090000C201.680000,132.090000,200.730000,132.210000,200.140000,132.460000C199.550000,132.710000,199.260000,133.020000,199.260000,133.420000C199.260000,134.010000,200.760000,134.500000,203.750000,134.890000C209.390000,135.680000,213.520000,137.040000,216.120000,138.980000C218.720000,140.920000,220.020000,143.580000,220.020000,146.970000C220.020000,150.800000,218.450000,153.970000,215.310000,156.470000C212.170000,158.970000,207.410000,160.230000,201.020000,160.230000C196.450000,160.240000,192.600000,159.810000,189.460000,158.950000ZM256.870000,125.590000C259.890000,128.020000,261.450000,130.980000,261.550000,134.460000L245.940000,139.030000C246.090000,135.250000,245.100000,133.360000,242.990000,133.360000C241.470000,133.360000,240.380000,133.940000,239.710000,135.090000C239.050000,136.240000,238.720000,138.320000,238.720000,141.310000C238.720000,144.260000,239.080000,146.240000,239.790000,147.270000C240.500000,148.300000,241.540000,148.820000,242.920000,148.820000C243.950000,148.820000,244.740000,148.410000,245.280000,147.600000C245.820000,146.790000,246.140000,145.570000,246.240000,143.960000L261.410000,148.670000C261.410000,150.780000,260.690000,152.710000,259.240000,154.450000C257.790000,156.190000,255.680000,157.590000,252.910000,158.650000C250.140000,159.700000,246.830000,160.230000,243.010000,160.230000C236.040000,160.230000,230.750000,158.590000,227.140000,155.300000C223.530000,152.010000,221.730000,147.270000,221.730000,141.090000C221.730000,135,223.510000,130.290000,227.070000,126.950000C230.630000,123.610000,235.650000,121.940000,242.130000,121.940000C248.930000,121.950000,253.850000,123.160000,256.870000,125.590000ZM266.890000,116.060000C265.490000,114.980000,264.790000,113.160000,264.790000,110.610000C264.790000,108.060000,265.490000,106.240000,266.890000,105.160000C268.290000,104.080000,270.660000,103.540000,274,103.540000C277.340000,103.540000,279.710000,104.080000,281.110000,105.160000C282.510000,106.240000,283.210000,108.060000,283.210000,110.610000C283.210000,113.160000,282.510000,114.980000,281.110000,116.060000C279.710000,117.140000,277.340000,117.680000,274,117.680000C270.650000,117.680000,268.290000,117.140000,266.890000,116.060000ZM282.460000,159.500000L265.520000,159.500000L265.520000,122.680000L282.460000,122.680000ZM326.420000,144.340000L303,144.340000C303.250000,146.160000,303.760000,147.380000,304.550000,148.020000C305.330000,148.660000,306.510000,148.980000,308.080000,148.980000C310.480000,148.980000,311.960000,147.920000,312.500000,145.810000L326.120000,149.490000C325.280000,153.020000,323.240000,155.700000,319.970000,157.520000C316.700000,159.340000,312.740000,160.240000,308.080000,160.240000C301.110000,160.240000,295.820000,158.600000,292.210000,155.310000C288.600000,152.020000,286.800000,147.280000,286.800000,141.100000C286.800000,135.010000,288.580000,130.300000,292.140000,126.960000C295.700000,123.620000,300.720000,121.950000,307.200000,121.950000C313.530000,121.950000,318.380000,123.570000,321.740000,126.810000C325.100000,130.050000,326.780000,134.420000,326.780000,139.920000C326.790000,141.780000,326.670000,143.260000,326.420000,144.340000ZM304.330000,134.250000C303.640000,134.990000,303.200000,136.260000,303,138.080000L310.950000,138.080000C310.800000,136.410000,310.450000,135.170000,309.880000,134.360000C309.310000,133.550000,308.440000,133.140000,307.270000,133.140000C306,133.140000,305.020000,133.510000,304.330000,134.250000ZM368.070000,125.190000C370.110000,127.350000,371.130000,130.390000,371.130000,134.320000L371.130000,159.500000L354.190000,159.500000L354.190000,138.730000C354.190000,137.110000,353.990000,135.990000,353.600000,135.380000C353.210000,134.770000,352.540000,134.460000,351.610000,134.460000C350.380000,134.460000,349.490000,134.930000,348.920000,135.860000C348.360000,136.790000,348.070000,138.240000,348.070000,140.210000L348.070000,159.500000L331.130000,159.500000L331.130000,122.680000L346.370000,122.680000L346.740000,130.710000C347.820000,127.860000,349.440000,125.690000,351.600000,124.190000C353.760000,122.690000,356.410000,121.940000,359.550000,121.940000C363.190000,121.950000,366.030000,123.030000,368.070000,125.190000ZM410.560000,125.590000C413.580000,128.020000,415.140000,130.980000,415.240000,134.460000L399.630000,139.030000C399.780000,135.250000,398.790000,133.360000,396.680000,133.360000C395.160000,133.360000,394.070000,133.940000,393.400000,135.090000C392.740000,136.240000,392.410000,138.320000,392.410000,141.310000C392.410000,144.260000,392.770000,146.240000,393.480000,147.270000C394.190000,148.300000,395.230000,148.820000,396.610000,148.820000C397.640000,148.820000,398.430000,148.410000,398.970000,147.600000C399.510000,146.790000,399.830000,145.570000,399.930000,143.960000L415.100000,148.670000C415.100000,150.780000,414.380000,152.710000,412.930000,154.450000C411.480000,156.190000,409.370000,157.590000,406.600000,158.650000C403.830000,159.700000,400.520000,160.230000,396.700000,160.230000C389.730000,160.230000,384.440000,158.590000,380.830000,155.300000C377.220000,152.010000,375.420000,147.270000,375.420000,141.090000C375.420000,135,377.200000,130.290000,380.760000,126.950000C384.320000,123.610000,389.340000,121.940000,395.820000,121.940000C402.620000,121.950000,407.540000,123.160000,410.560000,125.590000ZM457.430000,144.340000L434.010000,144.340000C434.260000,146.160000,434.770000,147.380000,435.560000,148.020000C436.340000,148.660000,437.520000,148.980000,439.090000,148.980000C441.490000,148.980000,442.970000,147.920000,443.510000,145.810000L457.130000,149.490000C456.290000,153.020000,454.250000,155.700000,450.980000,157.520000C447.710000,159.340000,443.750000,160.240000,439.090000,160.240000C432.120000,160.240000,426.830000,158.600000,423.220000,155.310000C419.610000,152.020000,417.810000,147.280000,417.810000,141.100000C417.810000,135.010000,419.590000,130.300000,423.150000,126.960000C426.710000,123.620000,431.730000,121.950000,438.210000,121.950000C444.540000,121.950000,449.390000,123.570000,452.750000,126.810000C456.110000,130.050000,457.790000,134.420000,457.790000,139.920000C457.800000,141.780000,457.670000,143.260000,457.430000,144.340000ZM435.340000,134.250000C434.650000,134.990000,434.210000,136.260000,434.010000,138.080000L441.960000,138.080000C441.810000,136.410000,441.460000,135.170000,440.890000,134.360000C440.320000,133.550000,439.450000,133.140000,438.280000,133.140000C437,133.140000,436.020000,133.510000,435.340000,134.250000Z"
                opacity="0" fill="rgb(0,71,182)" stroke="none" stroke-width="1" />
            <path id="e5x996r6wkec9"
                d="M202.050000,88.670000C200.820000,88.670000,199.850000,88.360000,199.180000,87.750000C198.510000,87.150000,198.070000,86.220000,197.840000,84.910000C197.630000,83.770000,197.530000,82.140000,197.530000,79.950000C197.530000,77.760000,197.630000,76.130000,197.840000,74.990000C198.080000,73.680000,198.520000,72.750000,199.180000,72.150000L199.180000,72.150000C199.860000,71.540000,200.820000,71.230000,202.050000,71.230000C203.280000,71.230000,204.250000,71.540000,204.920000,72.150000C205.590000,72.750000,206.020000,73.680000,206.260000,74.990000C206.470000,76.140000,206.570000,77.770000,206.570000,79.950000C206.570000,82.140000,206.470000,83.760000,206.260000,84.910000C206.020000,86.230000,205.580000,87.150000,204.920000,87.750000C204.240000,88.370000,203.280000,88.670000,202.050000,88.670000ZM202.050000,73.210000C201.550000,73.210000,200.880000,73.280000,200.510000,73.620000L200.510000,73.620000C200.290000,73.820000,199.980000,74.280000,199.790000,75.340000C199.600000,76.360000,199.510000,77.910000,199.510000,79.950000C199.510000,81.990000,199.600000,83.550000,199.790000,84.560000C199.980000,85.620000,200.290000,86.080000,200.510000,86.280000C200.880000,86.620000,201.560000,86.690000,202.050000,86.690000C202.550000,86.690000,203.220000,86.620000,203.590000,86.280000C203.810000,86.080000,204.110000,85.620000,204.310000,84.560000C204.500000,83.540000,204.590000,81.990000,204.590000,79.950000C204.590000,77.910000,204.500000,76.360000,204.310000,75.340000C204.120000,74.280000,203.810000,73.820000,203.590000,73.620000C203.220000,73.280000,202.550000,73.210000,202.050000,73.210000ZM247.480000,88.160000C245.880000,88.160000,244.630000,87.390000,243.870000,85.930000C243.200000,84.650000,242.870000,82.790000,242.870000,80.240000L242.870000,79.650000C242.870000,77,243.210000,75.090000,243.920000,73.830000C244.710000,72.410000,245.940000,71.660000,247.480000,71.660000C249.100000,71.660000,250.380000,72.370000,251.200000,73.720000C251.940000,74.950000,252.300000,76.980000,252.300000,79.940000C252.300000,82.900000,251.940000,84.930000,251.190000,86.130000L251.190000,86.130000C250.380000,87.460000,249.090000,88.160000,247.480000,88.160000ZM247.480000,73.650000C246.660000,73.650000,246.100000,74,245.660000,74.800000C245.130000,75.750000,244.860000,77.380000,244.860000,79.660000L244.860000,80.250000C244.860000,82.430000,245.120000,84.040000,245.630000,85.020000C246.050000,85.820000,246.620000,86.180000,247.470000,86.180000C248.400000,86.180000,249.040000,85.840000,249.500000,85.100000L249.500000,85.100000C249.870000,84.500000,250.310000,83.130000,250.310000,79.950000C250.310000,76.770000,249.870000,75.370000,249.500000,74.760000C249.040000,74,248.400000,73.650000,247.480000,73.650000ZM296.940000,77.920000L286.800000,77.920000L286.920000,76.820000C287.140000,74.770000,287.660000,73.330000,288.510000,72.420000C289.390000,71.480000,290.630000,71,292.180000,71C294.070000,71,295.090000,71.890000,295.610000,72.640000C296.280000,73.610000,296.690000,74.980000,296.850000,76.840000ZM289.060000,75.940000L294.730000,75.940000C294.570000,75,294.310000,74.270000,293.970000,73.780000C293.730000,73.440000,293.290000,72.990000,292.170000,72.990000C291.170000,72.990000,290.450000,73.250000,289.950000,73.780000L289.950000,73.780000C289.660000,74.090000,289.300000,74.710000,289.060000,75.940000ZM202.050000,99.490000C195.290000,99.490000,189.960000,97.720000,186.200000,94.220000C182.420000,90.700000,180.510000,85.700000,180.510000,79.360000C180.510000,73.010000,182.420000,68.010000,186.200000,64.500000C189.960000,61,195.290000,59.230000,202.050000,59.230000C208.810000,59.230000,214.140000,61,217.900000,64.500000L217.900000,64.500000C221.680000,68.020000,223.590000,73.020000,223.590000,79.360000C223.590000,85.710000,221.680000,90.710000,217.900000,94.220000C214.140000,97.720000,208.810000,99.490000,202.050000,99.490000ZM202.050000,61.200000C195.810000,61.200000,190.940000,62.790000,187.560000,65.940000C184.200000,69.070000,182.500000,73.580000,182.500000,79.350000C182.500000,85.120000,184.200000,89.630000,187.560000,92.760000C190.940000,95.910000,195.810000,97.500000,202.050000,97.500000C208.290000,97.500000,213.160000,95.910000,216.540000,92.760000C219.900000,89.630000,221.600000,85.120000,221.600000,79.350000C221.600000,73.580000,219.900000,69.070000,216.540000,65.940000L216.540000,65.940000C213.160000,62.800000,208.290000,61.200000,202.050000,61.200000ZM244.860000,114.220000L225.940000,114.220000L225.940000,59.950000L242.750000,59.950000L243.030000,65.470000C243.890000,64.100000,244.930000,62.910000,246.150000,61.940000C248.410000,60.130000,251.160000,59.220000,254.320000,59.220000C259.150000,59.220000,262.920000,61.020000,265.540000,64.560000L265.540000,64.560000C268.090000,68.010000,269.380000,72.910000,269.380000,79.140000C269.380000,85.460000,268.060000,90.470000,265.470000,94.010000C262.800000,97.650000,259.030000,99.500000,254.250000,99.500000C251.550000,99.500000,249.220000,98.820000,247.340000,97.470000C246.420000,96.810000,245.590000,96.030000,244.860000,95.120000ZM227.930000,112.230000L242.880000,112.230000L242.880000,86.990000L244.780000,91.170000C245.680000,93.160000,246.940000,94.740000,248.500000,95.850000C250.040000,96.950000,251.980000,97.510000,254.260000,97.510000C258.430000,97.510000,261.570000,95.980000,263.880000,92.840000C266.220000,89.640000,267.410000,85.030000,267.410000,79.140000C267.410000,73.350000,266.250000,68.840000,263.960000,65.740000L263.960000,65.740000C261.710000,62.690000,258.560000,61.210000,254.340000,61.210000C251.640000,61.210000,249.310000,61.980000,247.410000,63.500000C245.490000,65.040000,244.070000,67.180000,243.210000,69.880000L241.550000,75.040000L240.880000,61.950000L227.940000,61.950000L227.940000,112.230000ZM292.980000,99.490000C285.790000,99.490000,280.220000,97.740000,276.440000,94.300000C272.630000,90.830000,270.700000,85.800000,270.700000,79.350000C270.700000,73.010000,272.600000,68.010000,276.350000,64.490000C280.080000,60.990000,285.380000,59.210000,292.090000,59.210000C298.660000,59.210000,303.780000,60.940000,307.320000,64.350000C310.870000,67.770000,312.670000,72.420000,312.670000,78.170000C312.670000,80.130000,312.540000,81.640000,312.280000,82.810000L312.100000,83.580000L289.100000,83.580000C289.380000,84.710000,289.770000,85.240000,290.080000,85.500000C290.680000,85.990000,291.660000,86.240000,292.990000,86.240000C295.170000,86.240000,295.750000,85.690000,296.230000,84.460000L296.540000,83.670000L312.240000,86.980000L312.010000,87.970000C311.110000,91.770000,308.880000,94.690000,305.380000,96.640000C301.960000,98.530000,297.800000,99.490000,292.980000,99.490000ZM292.100000,61.200000C285.910000,61.200000,281.070000,62.790000,277.720000,65.940000C274.390000,69.070000,272.700000,73.580000,272.700000,79.350000C272.700000,85.220000,274.410000,89.750000,277.790000,92.830000C281.190000,95.930000,286.310000,97.500000,292.990000,97.500000C297.460000,97.500000,301.300000,96.630000,304.400000,94.900000C307.120000,93.390000,308.900000,91.280000,309.790000,88.500000L297.720000,85.960000C296.830000,87.560000,295.400000,88.230000,292.990000,88.230000C291.190000,88.230000,289.790000,87.830000,288.830000,87.050000C287.830000,86.240000,287.210000,84.830000,286.930000,82.730000L286.780000,81.600000L310.500000,81.600000C310.630000,80.690000,310.700000,79.540000,310.700000,78.180000C310.700000,72.990000,309.110000,68.820000,305.960000,65.790000C302.800000,62.740000,298.140000,61.200000,292.100000,61.200000ZM357.010000,98.750000L338.090000,98.750000L338.090000,77C338.090000,75.140000,337.820000,74.440000,337.660000,74.190000C337.580000,74.060000,337.360000,73.730000,336.510000,73.730000C335.360000,73.730000,334.910000,74.250000,334.670000,74.650000C334.350000,75.180000,333.970000,76.270000,333.970000,78.480000L333.970000,98.770000L315.050000,98.770000L315.050000,59.970000L332.240000,59.970000L332.480000,65.210000C333.440000,63.780000,334.600000,62.590000,335.950000,61.660000C338.270000,60.050000,341.140000,59.240000,344.470000,59.240000C348.370000,59.240000,351.470000,60.440000,353.700000,62.790000L353.700000,62.790000C355.910000,65.130000,357.030000,68.430000,357.030000,72.600000L357.030000,98.750000ZM340.070000,96.770000L355.020000,96.770000L355.020000,72.580000C355.020000,68.930000,354.080000,66.090000,352.230000,64.130000C350.370000,62.160000,347.830000,61.200000,344.450000,61.200000C341.530000,61.200000,339.040000,61.900000,337.060000,63.270000C335.080000,64.640000,333.560000,66.680000,332.560000,69.320000L330.860000,73.810000L330.320000,61.930000L317.020000,61.930000L317.020000,96.760000L331.970000,96.760000L331.970000,78.460000C331.970000,76.290000,332.290000,74.700000,332.960000,73.600000C333.700000,72.370000,334.930000,71.720000,336.500000,71.720000C338.100000,71.720000,338.920000,72.470000,339.320000,73.100000C339.830000,73.900000,340.070000,75.130000,340.070000,76.990000Z"
                transform="matrix(1 0 0 1 -2.77000000072235 0.82084161795049)" opacity="0" fill="rgb(0,71,182)"
                stroke="none" stroke-width="1" />
            <g id="e5x996r6wkec10_ts" transform="translate(360.900009,177.535004) scale(1,1)">
                <path id="e5x996r6wkec10"
                    d="M283.340000,168.460000L283.340000,182.730000C283.340000,185.520000,282.580000,187.650000,281.070000,189.100000C279.560000,190.550000,277.430000,191.280000,274.680000,191.280000C271.930000,191.280000,269.800000,190.550000,268.280000,189.100000C266.760000,187.650000,266,185.520000,266,182.730000L266,168.460000L267.700000,168.460000L267.700000,182.390000C267.700000,184.800000,268.300000,186.620000,269.490000,187.860000C270.680000,189.100000,272.410000,189.720000,274.680000,189.720000C276.950000,189.720000,278.680000,189.100000,279.860000,187.860000C281.040000,186.620000,281.630000,184.800000,281.630000,182.390000L281.630000,168.460000ZM311.510000,168.460000L311.510000,190.940000L309.870000,190.940000L309.870000,174.180000L310.070000,170.090000L310.040000,170.090000L301.830000,190.940000L300.260000,190.940000L292.050000,170.090000L292.020000,170.090000L292.220000,174.180000L292.220000,190.940000L290.590000,190.940000L290.590000,168.460000L293.140000,168.460000L299.920000,185.490000L301.040000,188.930000L301.070000,188.930000L302.160000,185.520000L308.940000,168.460000ZM326.870000,191.210000C324.990000,191.210000,323.350000,190.810000,321.970000,190.020000C320.580000,189.220000,319.520000,188.090000,318.770000,186.630000C318.020000,185.170000,317.650000,183.420000,317.650000,181.400000C317.650000,179.380000,318.020000,177.640000,318.770000,176.170000C319.520000,174.710000,320.590000,173.580000,321.970000,172.780000C323.350000,171.990000,324.990000,171.590000,326.870000,171.590000C328.780000,171.590000,330.420000,171.990000,331.790000,172.780000C333.160000,173.580000,334.230000,174.700000,334.970000,176.170000C335.720000,177.630000,336.090000,179.380000,336.090000,181.400000C336.090000,183.420000,335.710000,185.160000,334.970000,186.630000C334.220000,188.090000,333.160000,189.220000,331.790000,190.020000C330.420000,190.820000,328.780000,191.210000,326.870000,191.210000ZM326.870000,189.750000C328.410000,189.750000,329.750000,189.410000,330.870000,188.750000C331.990000,188.080000,332.860000,187.120000,333.480000,185.870000C334.090000,184.620000,334.400000,183.130000,334.400000,181.410000C334.400000,179.660000,334.090000,178.170000,333.480000,176.930000C332.870000,175.690000,332,174.740000,330.870000,174.070000C329.750000,173.400000,328.410000,173.070000,326.870000,173.070000C325.350000,173.070000,324.020000,173.410000,322.880000,174.070000C321.740000,174.740000,320.870000,175.690000,320.260000,176.930000C319.650000,178.170000,319.340000,179.660000,319.340000,181.410000C319.340000,183.140000,319.650000,184.620000,320.260000,185.870000C320.870000,187.120000,321.750000,188.080000,322.880000,188.750000C324.020000,189.410000,325.350000,189.750000,326.870000,189.750000ZM357.390000,171.870000L357.390000,190.950000L355.110000,190.950000L344.720000,175.790000L343.430000,173.680000L343.400000,173.680000L343.500000,175.760000L343.500000,190.950000L341.830000,190.950000L341.830000,171.870000L344.110000,171.870000L354.360000,186.860000L355.790000,189.140000L355.820000,189.140000L355.720000,187.060000L355.720000,171.870000ZM378.200000,171.870000L378.200000,173.330000L361.950000,173.330000L361.950000,171.870000ZM370.950000,172.510000L370.950000,190.940000L369.250000,190.940000L369.250000,172.510000ZM382.770000,190.940000L382.770000,171.860000L390.370000,171.860000C392.390000,171.860000,393.990000,172.340000,395.170000,173.310000C396.350000,174.270000,396.940000,175.610000,396.940000,177.310000C396.940000,179.010000,396.350000,180.350000,395.170000,181.310000C393.990000,182.270000,392.390000,182.760000,390.370000,182.760000L384.480000,182.760000L384.480000,190.940000ZM384.470000,181.300000L390.330000,181.300000C391.920000,181.300000,393.130000,180.960000,393.970000,180.280000C394.810000,179.600000,395.230000,178.610000,395.230000,177.320000C395.230000,176.050000,394.810000,175.070000,393.970000,174.370000C393.130000,173.680000,391.910000,173.330000,390.330000,173.330000L384.470000,173.330000ZM395.980000,190.940000L390.160000,182.320000L391.590000,181.600000L397.990000,190.930000L395.980000,190.930000ZM403.030000,190.940000L403.030000,171.860000L416.790000,171.860000L416.790000,173.320000L404.730000,173.320000L404.730000,180.510000L414.270000,180.510000L414.270000,181.970000L404.730000,181.970000L404.730000,189.460000L417.270000,189.460000L417.270000,190.920000L403.030000,190.920000ZM411.380000,163.790000L413.190000,163.790000L410.360000,169.040000L408.960000,169.040000ZM419.890000,190.940000L427.790000,171.860000L429.800000,171.860000L437.740000,190.940000L435.930000,190.940000L429.560000,175.410000L428.810000,173.430000L428.060000,175.410000L421.690000,190.940000ZM423.470000,185.010000L423.470000,183.550000L434.130000,183.550000L434.130000,185.010000ZM443.910000,189.480000L455.800000,189.480000L455.800000,190.940000L442.200000,190.940000L442.200000,171.860000L443.900000,171.860000L443.900000,189.480000Z"
                    transform="translate(-360.900009,-177.535004)" opacity="0" fill="rgb(77,76,74)" stroke="none"
                    stroke-width="1" />
            </g>
            <path id="e5x996r6wkec11"
                d="M179.929500,208.800450L179.933500,215.490230L229.318270,215.490230L229.318270,208.816050Z"
                fill="none" stroke="none" stroke-width="1" />
        </g>
    </g>
</svg>